<svg xmlns="http://www.w3.org/2000/svg" version="1.1" viewBox="-5.0 -10.0 110.0 135.0">
 <path d="m50 3.125c-25.848 0-46.875 21.027-46.875 46.875s21.027 46.875 46.875 46.875 46.875-21.027 46.875-46.875-21.027-46.875-46.875-46.875zm0 90.625c-24.125 0-43.75-19.625-43.75-43.75s19.625-43.75 43.75-43.75 43.75 19.625 43.75 43.75-19.625 43.75-43.75 43.75zm31.23-43.75c0-0.097656-0.011719-0.19141-0.03125-0.28906-0.019531-0.10547-0.050781-0.20703-0.089844-0.30859-0.019531-0.042969-0.015625-0.09375-0.039063-0.13672-0.023437-0.042969-0.0625-0.070313-0.089843-0.10938-0.058594-0.089844-0.125-0.16797-0.20312-0.24609-0.074219-0.074218-0.15234-0.14062-0.24219-0.19922-0.042968-0.027344-0.066406-0.070313-0.11328-0.09375l-50-26.562c-0.019531-0.011719-0.042969-0.007813-0.0625-0.019532-0.09375-0.046875-0.19922-0.0625-0.30078-0.089844-0.10156-0.023437-0.19922-0.054687-0.30078-0.058593-0.027343 0-0.046874-0.011719-0.070312-0.011719-0.074219 0-0.14062 0.03125-0.21484 0.042969-0.10938 0.015625-0.21094 0.027343-0.31641 0.0625-0.097656 0.035156-0.17969 0.089843-0.26562 0.14062-0.085937 0.050781-0.16797 0.097656-0.24219 0.16406-0.082032 0.074219-0.14453 0.16406-0.21094 0.25781-0.042969 0.058593-0.097656 0.097656-0.13281 0.16406-0.011719 0.019531-0.007813 0.042969-0.019532 0.0625-0.046875 0.09375-0.0625 0.19531-0.089844 0.30078-0.023437 0.10156-0.058593 0.19922-0.0625 0.30078 0.003907 0.023437-0.007812 0.042968-0.007812 0.066406v53.125c0 0.023438 0.011719 0.042969 0.011719 0.066406 0.003906 0.10156 0.035156 0.19922 0.0625 0.30078 0.027343 0.10547 0.042969 0.20703 0.089843 0.30469 0.007813 0.019531 0.007813 0.042969 0.019532 0.0625 0.074218 0.13672 0.16406 0.25781 0.26562 0.36328 0.015625 0.015625 0.035156 0.023438 0.046875 0.039063 0.11719 0.10938 0.25 0.19531 0.39453 0.26562 0.042969 0.019531 0.085937 0.039062 0.13281 0.054687 0.17187 0.0625 0.34766 0.10547 0.53516 0.10938 0-0.003906 0.003906-0.003906 0.003906-0.003906 0.17969 0 0.35938-0.042969 0.53906-0.10938 0.039063-0.015625 0.078126-0.027344 0.11328-0.042969 0.027344-0.011718 0.054687-0.015625 0.078125-0.03125l50-26.562c0.007812-0.003906 0.011719-0.011718 0.019531-0.015625 0.15625-0.085937 0.29688-0.20312 0.41797-0.34375 0.03125-0.039062 0.058593-0.078125 0.085937-0.11719 0.039063-0.054688 0.089844-0.10547 0.12109-0.16797 0.023438-0.042969 0.023438-0.09375 0.039062-0.13672 0.042969-0.10156 0.070313-0.19922 0.089844-0.30859 0.027344-0.097656 0.039063-0.19141 0.039063-0.28906zm-49.98-23.965 45.105 23.965-45.105 23.965z"/>
<text x="0.0" y="117.5" font-size="5.0" font-weight="bold" font-family="Arbeit Regular, Helvetica, Arial-Unicode, Arial, Sans-serif" fill="#000000">Created by FAUZUL KABIR</text><text x="0.0" y="122.5" font-size="5.0" font-weight="bold" font-family="Arbeit Regular, Helvetica, Arial-Unicode, Arial, Sans-serif" fill="#000000">from Noun Project</text></svg>